PathFileType	4	(X/Y/Z)	./resultDataOpenSim/trcMotMarkerGrf/sub06/qtm-15-01.trc
DataRate	CameraRate	NumFrames	NumMarkers	Units	OrigDataRate	OrigDataStartFrame	OrigNumFrames
250.000000	250.000000	14	24	m	250.000000	65	513
Frame#	Time	L.Toe.Tip			R.Toe.Tip			L.Ankle.Lat			R.Ankle.Lat			L.Ankle.Med			R.Ankle.Med			L.Heel			R.Heel			L.Knee.Lat			R.Knee.Lat			L.Knee.Med			R.Knee.Med			L.Thigh.Upper			R.Thigh.Upper			L.ASIS			R.ASIS			V.Sacral			L.Acromium			R.Acromium			C7			L.Elbow			R.Elbow			L.Wrist.Lat			R.Wrist.Lat
		X1	Y1	Z1	X2	Y2	Z2	X3	Y3	Z3	X4	Y4	Z4	X5	Y5	Z5	X6	Y6	Z6	X7	Y7	Z7	X8	Y8	Z8	X9	Y9	Z9	X10	Y10	Z10	X11	Y11	Z11	X12	Y12	Z12	X13	Y13	Z13	X14	Y14	Z14	X15	Y15	Z15	X16	Y16	Z16	X17	Y17	Z17	X18	Y18	Z18	X19	Y19	Z19	X20	Y20	Z20	X21	Y21	Z21	X22	Y22	Z22	X23	Y23	Z23	X24	Y24	Z24

65	0.256	-1.107215	0.081463383	-0.061731508	-0.72003408	0.036342942	0.12739483	-1.1363461	0.20773398	-0.080932623	-0.85488636	0.063362276	0.15508151	-1.1181416	0.21095084	0.00088754662	-0.83817367	0.07905347	0.066957701	-1.1943073	0.25172028	-0.03035633	-0.91281786	0.039607289	0.09778563	-0.81401554	0.39854591	-0.1078551	-0.76318866	0.44010407	0.17295703	-0.81201083	0.39285671	0.017801375	-0.80104639	0.4295177	0.050748287	-0.89190184	0.78912076	-0.110305	-0.86662244	0.80206033	0.23268191	-0.8146217	0.83945573	-0.074260271	-0.78540043	0.85329057	0.16988078	-0.97121138	0.92626718	0.072522296	-0.83201512	1.3296705	-0.12341022	-0.82897102	1.3127074	0.23810152	-0.90496801	1.3658817	0.05793439	-0.84434317	1.0046797	-0.18239282	-0.93689457	1.0136364	0.29640885	-0.64663597	0.85720315	-0.15780865	-0.83488892	0.80126022	0.34438092
66	0.26	-1.0878993	0.080670622	-0.060524493	-0.71999156	0.036343425	0.1273375	-1.1208342	0.2057188	-0.079670413	-0.85485814	0.063408547	0.15508424	-1.1023428	0.20949999	0.0020586415	-0.83816575	0.079311556	0.067053857	-1.180132	0.24825367	-0.028995382	-0.91287683	0.039793145	0.097919467	-0.8015982	0.40154385	-0.1071636	-0.76209581	0.44022694	0.17311052	-0.79955953	0.39614259	0.018503834	-0.80074035	0.42975043	0.050879925	-0.88500303	0.791339	-0.11020286	-0.86088435	0.80344634	0.23306136	-0.80810133	0.84161338	-0.073745833	-0.77908879	0.85505423	0.17058697	-0.96583345	0.927952	0.072903915	-0.82603211	1.3316385	-0.12336479	-0.82203515	1.3149171	0.23796481	-0.8987705	1.367772	0.057947219	-0.84068797	1.0069058	-0.18212416	-0.92778726	1.0148015	0.29716505	-0.64457775	0.85703409	-0.15858216	-0.82157482	0.80397643	0.34385784
67	0.264	-1.0684668	0.079809673	-0.05936025	-0.71994303	0.036351769	0.12728924	-1.105165	0.20352252	-0.078408238	-0.85477935	0.063514893	0.15512067	-1.0864296	0.20787565	0.0032341	-0.83817322	0.079579189	0.067181584	-1.1658791	0.24456306	-0.027478453	-0.91295125	0.039991305	0.09810842	-0.78925518	0.40458331	-0.10643672	-0.76110558	0.44037173	0.17332079	-0.78725681	0.39952324	0.019203485	-0.80051338	0.42997258	0.051028839	-0.87806307	0.79358052	-0.11017437	-0.85511626	0.80482098	0.23348638	-0.80146816	0.84376656	-0.073187631	-0.77247016	0.85688355	0.17132163	-0.96113482	0.9298414	0.073195326	-0.82005751	1.3335824	-0.12331395	-0.81515962	1.3170851	0.23782446	-0.89258375	1.3696322	0.057922895	-0.83713102	1.0091255	-0.1821517	-0.9186995	1.0159912	0.29794852	-0.64256879	0.85689679	-0.15938231	-0.80823354	0.80680543	0.34330008
68	0.268	-1.0489492	0.078865864	-0.05826136	-0.71989333	0.036358633	0.12726211	-1.0892955	0.20115796	-0.077142758	-0.85466588	0.06367703	0.1551914	-1.0703398	0.2060943	0.0043723804	-0.83816267	0.079851191	0.067351037	-1.151449	0.24062925	-0.026005963	-0.91298097	0.040243096	0.098277476	-0.77702125	0.40765012	-0.10567931	-0.76042162	0.44049647	0.17354597	-0.7751775	0.40297573	0.019904346	-0.80034643	0.43019159	0.051218534	-0.87093546	0.79589245	-0.11048101	-0.84934442	0.80617619	0.23393412	-0.79474805	0.8459239	-0.072555038	-0.76570992	0.85875346	0.17204524	-0.9569073	0.93200082	0.073326938	-0.81409994	1.3354935	-0.12325377	-0.80832779	1.3192133	0.23768454	-0.88638753	1.3714347	0.057955071	-0.8335949	1.0113425	-0.18224694	-0.90955133	1.0171826	0.29873605	-0.64060263	0.85678372	-0.16019931	-0.79479166	0.80975501	0.34270866
69	0.272	-1.0293367	0.077853734	-0.057240831	-0.71985247	0.03635327	0.12726559	-1.0732271	0.19863977	-0.075878059	-0.85453697	0.063881039	0.15529174	-1.0540154	0.20418484	0.0054301817	-0.83810939	0.080129974	0.06755241	-1.1367764	0.23641855	-0.024694594	-0.91285122	0.040611197	0.098271466	-0.76493923	0.41073665	-0.10490455	-0.76017789	0.44057571	0.17373486	-0.76332689	0.40648684	0.020597734	-0.80012539	0.43045133	0.051445582	-0.86359134	0.7982359	-0.11104324	-0.84358534	0.80750558	0.23436103	-0.78803715	0.84808763	-0.071925714	-0.75918225	0.86057811	0.17268358	-0.95261994	0.93433174	0.073291049	-0.80816896	1.3373659	-0.12318441	-0.8015273	1.3212945	0.23754557	-0.88018424	1.3731669	0.058076993	-0.82999754	1.0135576	-0.18213067	-0.90029774	1.0183471	0.29950957	-0.63867367	0.85669051	-0.16102111	-0.78127251	0.81281205	0.34208301
70	0.276	-1.0096109	0.076797157	-0.056297778	-0.71983405	0.03632691	0.1273026	-1.0570345	0.19599073	-0.074633912	-0.85441076	0.064105965	0.15541094	-1.037485	0.20217929	0.0064132746	-0.83801442	0.080422597	0.067778645	-1.1218231	0.23190077	-0.023519549	-0.91248505	0.041124063	0.098003057	-0.75301103	0.41384684	-0.10412365	-0.76031848	0.44062495	0.17387549	-0.75167641	0.41005242	0.021287385	-0.79988708	0.43077107	0.051641247	-0.85620654	0.80051611	-0.11156225	-0.83784388	0.80880628	0.23471614	-0.78142166	0.85024757	-0.071412697	-0.75310457	0.86229752	0.17318952	-0.94787394	0.93665591	0.073139337	-0.80226551	1.3391974	-0.12310942	-0.79475759	1.3233189	0.23740562	-0.87398908	1.3748303	0.058256339	-0.82633066	1.0157613	-0.18172519	-0.89103819	1.0194775	0.30029172	-0.63677392	0.85661736	-0.16183639	-0.76778266	0.81594492	0.34142328
71	0.28	-0.9897819	0.0757062	-0.055420838	-0.71984761	0.036278192	0.12737172	-1.040769	0.1932172	-0.07344559	-0.85431828	0.064329813	0.1555374	-1.020936	0.20005422	0.007431757	-0.83790653	0.080737086	0.068026827	-1.1066012	0.22709981	-0.02236735	-0.9119637	0.041721781	0.097593693	-0.74117049	0.41698729	-0.10334287	-0.7606774	0.44068064	0.1739904	-0.74017741	0.41367623	0.021998292	-0.79988743	0.43112027	0.051715305	-0.84899893	0.80268821	-0.11191537	-0.8321214	0.81008066	0.23494866	-0.77488728	0.8523888	-0.07101939	-0.74732475	0.86391693	0.1735932	-0.94269503	0.93881324	0.072947099	-0.79638147	1.3409851	-0.12302864	-0.78802305	1.3252842	0.23726664	-0.86780795	1.3764282	0.058445488	-0.82265556	1.0179418	-0.181145	-0.88197342	1.0205977	0.30114034	-0.63490557	0.85656363	-0.16264964	-0.75437863	0.81913393	0.34073415
72	0.284	-0.96986276	0.074592616	-0.054598331	-0.71988631	0.036221886	0.12746746	-1.0243755	0.19028199	-0.072344381	-0.85429276	0.06454547	0.15566693	-1.0047039	0.19768727	0.0086662224	-0.83782097	0.081080432	0.068284566	-1.0912042	0.22209731	-0.021079317	-0.91152655	0.042264683	0.097320317	-0.72935587	0.42014983	-0.10255571	-0.76110381	0.440771	0.17410938	-0.72870936	0.41738105	0.022785276	-0.80013218	0.4314965	0.051682783	-0.84199032	0.80478266	-0.11212948	-0.82642926	0.81133715	0.23502028	-0.7683434	0.85450353	-0.070652164	-0.74152683	0.8654629	0.17397227	-0.9373636	0.94068412	0.072765963	-0.79050603	1.342721	-0.12293686	-0.78132655	1.3271928	0.23712981	-0.86163478	1.3779605	0.05861379	-0.8190504	1.0200958	-0.18054255	-0.87316942	1.0217278	0.3020836	-0.63307821	0.85652213	-0.16347882	-0.7410242	0.82238487	0.34002275
73	0.288	-0.94984457	0.073487435	-0.053830211	-0.71993081	0.036181214	0.12757953	-1.0077632	0.18712666	-0.071332997	-0.85433782	0.064764526	0.15580149	-0.9889005	0.19498596	0.010151477	-0.83776317	0.081459746	0.068536491	-1.0757154	0.21695412	-0.01948549	-0.91141153	0.042621235	0.097417934	-0.71762405	0.42331348	-0.10174464	-0.76149951	0.44090917	0.17425601	-0.71717942	0.42117369	0.023687784	-0.80025056	0.43195191	0.051655899	-0.83497179	0.80685335	-0.11216824	-0.82080383	0.81258321	0.23492951	-0.76172939	0.8565869	-0.070233459	-0.73552672	0.86694838	0.17438314	-0.93199406	0.94217545	0.072548519	-0.78463635	1.344397	-0.12283323	-0.77466703	1.3290429	0.23699392	-0.85546599	1.3794254	0.0587569	-0.81555858	1.0222212	-0.18002611	-0.86444012	1.0228669	0.30308955	-0.63129245	0.85647722	-0.16433944	-0.72771594	0.82570153	0.33929174
74	0.292	-0.92973542	0.072412234	-0.053126293	-0.71996772	0.036167874	0.12769778	-0.99092867	0.18372927	-0.070368296	-0.85442386	0.065002225	0.15594323	-0.97318424	0.19202533	0.011687443	-0.83770022	0.081883014	0.0687813	-1.0600914	0.21166424	-0.017570596	-0.9116458	0.042802297	0.097877784	-0.70610213	0.42646314	-0.10089826	-0.76179712	0.44110047	0.17444816	-0.70570452	0.42498744	0.024655129	-0.79999638	0.4325229	0.051696202	-0.82773104	0.80892054	-0.11196012	-0.81530513	0.81380022	0.23473024	-0.75507902	0.85862218	-0.069757425	-0.72935189	0.86837513	0.17483031	-0.926172	0.9432329	0.072069016	-0.77877986	1.3460104	-0.12272533	-0.76804424	1.3308304	0.23686241	-0.84930922	1.3808193	0.058888945	-0.81213031	1.0243007	-0.1796361	-0.85554867	1.0240037	0.30410011	-0.62954076	0.85641376	-0.16523858	-0.71450716	0.8290713	0.33853707
75	0.296	-0.90956796	0.071350902	-0.052495816	-0.719994	0.036179846	0.12781873	-0.97397966	0.18015202	-0.069372207	-0.85451239	0.065267248	0.15609332	-0.95717154	0.18894704	0.013080418	-0.83758396	0.082358719	0.069035087	-1.0442451	0.20619517	-0.015586619	-0.91202644	0.042991514	0.098409809	-0.69481839	0.42959454	-0.10001723	-0.76193235	0.4413501	0.17470321	-0.69455527	0.42870382	0.025569759	-0.79945615	0.43319019	0.051786056	-0.8202728	0.81096034	-0.11158026	-0.80996141	0.81490507	0.23448678	-0.74847452	0.86058391	-0.069266341	-0.72314367	0.8697348	0.17528864	-0.91911628	0.94388968	0.070991943	-0.77294106	1.3475638	-0.12262765	-0.76145606	1.3325512	0.23673569	-0.84317373	1.3821367	0.059020473	-0.80860411	1.0262997	-0.1793402	-0.846455	1.0251045	0.30505156	-0.62781287	0.85632837	-0.16617161	-0.70138077	0.83248135	0.33775364
76	0.3	-0.88933618	0.070278172	-0.05193631	-0.720002	0.036217757	0.1279428	-0.95701396	0.17651738	-0.068303165	-0.85457425	0.06556733	0.15625133	-0.94078031	0.18581316	0.014316009	-0.83736078	0.082900617	0.069315103	-1.0281712	0.20053852	-0.013811189	-0.91236379	0.043360682	0.098713886	-0.68368593	0.43270014	-0.09910773	-0.76182625	0.4416678	0.17504332	-0.68387334	0.43226293	0.026372317	-0.79877002	0.43390834	0.051900672	-0.81276577	0.81294222	-0.11122507	-0.80470166	0.8157803	0.23420711	-0.74192904	0.86246476	-0.068788125	-0.71706237	0.87100076	0.17573389	-0.91056248	0.94430471	0.069190145	-0.76712412	1.3490597	-0.12255398	-0.75489599	1.3341993	0.23660333	-0.83705854	1.3833712	0.059148256	-0.80480387	1.0281942	-0.17906486	-0.8372662	1.0261065	0.30588258	-0.62609187	0.85622373	-0.16712016	-0.68826758	0.83592861	0.33694171
77	0.304	-0.86899797	0.069200097	-0.05142717	-0.71997139	0.036289918	0.12806863	-0.94003265	0.17291247	-0.067192471	-0.85459702	0.065914268	0.15641186	-0.92405464	0.18263249	0.015471177	-0.83701477	0.083511412	0.06961035	-1.0118889	0.19472451	-0.012296332	-0.91259497	0.043911395	0.098754392	-0.67263844	0.43576265	-0.0981815	-0.76138131	0.44206852	0.17549708	-0.67355565	0.43570817	0.027109135	-0.79798648	0.4346503	0.052017432	-0.80533443	0.81485618	-0.11099673	-0.79945014	0.81641533	0.23391494	-0.73534527	0.86428729	-0.068302154	-0.71123585	0.8721333	0.17615174	-0.90140093	0.94473141	0.067025725	-0.76135198	1.3504966	-0.12250563	-0.74837503	1.3357699	0.2364597	-0.83095727	1.3845179	0.059267358	-0.80070761	1.0300098	-0.17873449	-0.82810903	1.0269898	0.30665532	-0.62436376	0.8560967	-0.16806871	-0.67517554	0.83941696	0.33610676
78	0.308	-0.84854397	0.068142433	-0.050942411	-0.71988255	0.036397519	0.12819534	-0.92299776	0.1693422	-0.066084077	-0.85458885	0.066312771	0.15656333	-0.90695213	0.17944177	0.016615603	-0.83663979	0.084148361	0.06987851	-0.99538133	0.18880723	-0.010937453	-0.91267293	0.044541342	0.098667798	-0.66168557	0.438766	-0.097253395	-0.76050232	0.44256533	0.176091	-0.663455	0.43909304	0.027839935	-0.79712258	0.43542075	0.052116975	-0.79798727	0.81670524	-0.11086674	-0.79422098	0.81695358	0.2337442	-0.72860226	0.86608238	-0.067767293	-0.70563721	0.87311354	0.17654026	-0.89314612	0.9454245	0.065227703	-0.75564507	1.3518644	-0.1224731	-0.74194481	1.3372564	0.23631011	-0.82486701	1.3855756	0.059380359	-0.79650326	1.031812	-0.17827721	-0.81920381	1.0278621	0.30769767	-0.62262813	0.85594315	-0.16902062	-0.66216613	0.84294792	0.33525183
